<?xml version="1.0" encoding="utf-8"?>
<!-- Generator: Adobe Illustrator 20.1.0, SVG Export Plug-In . SVG Version: 6.00 Build 0)  -->
<svg version="1.1" id="Ebene_1" xmlns="http://www.w3.org/2000/svg" xmlns:xlink="http://www.w3.org/1999/xlink" x="0px" y="0px"
	 viewBox="0 0 288.1 60" style="enable-background:new 0 0 288.1 60;" xml:space="preserve">
<style type="text/css">
	.st0{fill:#3CBFF0;}
</style>
<g>
	<rect x="69" y="11.1" class="st0" width="4.2" height="37.7"/>
	<rect x="114.4" class="st0" width="4.2" height="48.9"/>
	<rect x="283.9" class="st0" width="4.2" height="48.9"/>
	<polygon class="st0" points="4.2,11.1 0,11.1 0,15.3 0,27.9 0,32.1 4.2,32.1 23.7,32.1 23.7,44.6 0,44.6 0,48.8 23.7,48.8 
		27.9,48.8 27.9,44.6 27.9,32.1 27.9,27.9 23.7,27.9 4.2,27.9 4.2,15.3 27.9,15.3 27.9,11.1 	"/>
	<polygon class="st0" points="107.8,15.3 107.8,11.1 107.8,11.1 103.6,11.1 84,11.1 79.9,11.1 79.8,11.1 79.8,48.9 79.9,48.9 
		84,48.9 107.8,48.9 107.8,44.7 84,44.7 84,15.3 103.6,15.3 103.6,27.9 98.8,27.9 98.8,32.1 107.8,32.1 107.8,32.1 107.8,32.1 
		107.8,15.3 	"/>
	<polygon class="st0" points="253.6,44.7 253.6,15.4 273.1,15.4 273.1,27.9 268.6,27.9 268.6,32.1 277.3,32.1 277.3,32.1 
		277.3,32.1 277.3,15.4 277.3,11.2 273.1,11.2 253.6,11.2 249.4,11.2 249.4,11.2 249.4,48.9 249.4,48.9 253.6,48.9 277.3,48.9 
		277.3,44.7 	"/>
	<rect x="169.6" y="11.2" class="st0" width="4.2" height="37.7"/>
	<polygon class="st0" points="208.4,48.9 208.4,11.2 208.3,11.2 208.3,11.1 180.4,11.1 180.4,11.2 180.4,11.2 180.4,48.9 
		184.6,48.9 184.6,15.3 204.2,15.3 204.2,48.9 	"/>
	<polygon class="st0" points="163,48.9 163,11.1 159.1,11.1 159.1,44.7 146.3,44.7 146.3,39.9 142.1,39.9 142.1,44.7 129.4,44.7 
		129.4,11.1 125.2,11.1 125.2,44.7 125.2,48.9 129.4,48.9 159.1,48.9 162.9,48.9 	"/>
	<path class="st0" d="M242.7,27.9h-9v4.2h4.8v16.7h4.2L242.7,27.9L242.7,27.9L242.7,27.9z M242.9,11.1h-23.8V0h-4.2v48.9h4.2V15.3
		h23.8V11.1z"/>
	<polygon class="st0" points="62.4,48.8 62.4,15.3 62.4,11.1 58.3,11.1 38.7,11.1 34.5,11.1 34.5,15.3 34.5,60 38.7,60 38.7,15.3 
		58.3,15.3 58.3,44.6 53.4,44.6 53.4,48.8 62.4,48.8 62.4,48.8 	"/>
</g>
</svg>
